<?xml version="1.0" standalone="no"?>
<!DOCTYPE svg PUBLIC "-//W3C//DTD SVG 20010904//EN"
 "http://www.w3.org/TR/2001/REC-SVG-20010904/DTD/svg10.dtd">
<svg version="1.0" xmlns="http://www.w3.org/2000/svg"
 width="512.000000pt" height="512.000000pt" viewBox="0 0 512.000000 512.000000"
 preserveAspectRatio="xMidYMid meet">

<g transform="translate(0.000000,512.000000) scale(0.100000,-0.100000)"
fill="#000000" stroke="none">
<path d="M2405 5110 c-392 -61 -720 -329 -855 -697 -76 -210 -82 -491 -14
-698 47 -142 136 -292 240 -404 60 -66 192 -169 254 -201 31 -16 64 -58 175
-222 76 -112 151 -218 169 -236 53 -57 101 -77 186 -77 85 0 133 20 186 77 17
18 93 124 169 236 111 164 144 206 175 222 62 32 194 135 254 201 118 127 210
294 257 464 30 113 38 345 15 469 -77 409 -387 738 -791 842 -113 28 -315 40
-420 24z m377 -169 c354 -93 608 -357 683 -714 19 -88 19 -276 0 -364 -75
-357 -331 -623 -683 -714 -463 -119 -953 153 -1100 611 -37 114 -45 182 -40
327 5 114 10 153 33 223 109 337 359 565 705 641 109 24 289 20 402 -10z
m-222 -1965 c85 0 174 5 198 11 33 8 42 8 39 0 -10 -24 -156 -234 -173 -248
-22 -18 -106 -18 -128 0 -17 14 -164 224 -173 247 -3 10 5 10 39 1 24 -6 113
-11 198 -11z"/>
<path d="M2234 4529 c-18 -20 -19 -43 -19 -484 0 -441 1 -464 19 -484 26 -29
86 -29 112 0 18 20 19 43 19 484 0 441 -1 464 -19 484 -13 14 -31 21 -56 21
-25 0 -43 -7 -56 -21z"/>
<path d="M2534 4529 c-18 -20 -19 -43 -19 -484 0 -441 1 -464 19 -484 26 -29
86 -29 112 0 17 19 19 41 22 204 l4 183 106 4 c127 5 184 28 250 103 50 57 72
119 72 205 0 54 -6 78 -31 128 -34 69 -71 104 -144 138 -46 22 -63 24 -211 24
-151 0 -162 -1 -180 -21z m372 -173 c41 -41 44 -47 44 -98 0 -109 -61 -158
-197 -158 l-83 0 0 150 0 150 96 0 97 0 43 -44z"/>
<path d="M832 2329 c-97 -48 -104 -87 -100 -542 3 -322 5 -355 22 -390 28 -57
85 -90 162 -95 l64 -4 0 -123 0 -123 -64 -4 c-77 -5 -134 -38 -162 -95 -18
-35 -19 -64 -19 -428 0 -441 0 -442 78 -493 l41 -27 1690 -3 c1876 -3 1748 -7
1801 62 14 18 29 57 35 86 13 68 13 681 0 749 -18 99 -83 150 -187 151 l-53 0
0 125 0 125 53 0 c104 1 169 52 187 151 13 67 13 681 0 748 -13 67 -42 108
-94 132 -39 18 -104 19 -1726 19 l-1685 0 -43 -21z m3396 -281 l3 -148 -659 0
c-649 0 -659 0 -680 -20 -30 -28 -30 -82 0 -110 21 -20 31 -20 680 -20 l659 0
-3 -147 -3 -148 -1665 0 -1665 0 -3 360 c-1 198 0 366 3 372 3 11 339 13 1667
11 l1663 -3 3 -147z m-248 -873 l0 -125 -1420 0 -1420 0 0 125 0 125 1420 0
1420 0 0 -125z m248 -427 l3 -148 -659 0 c-649 0 -659 0 -680 -20 -30 -28 -30
-82 0 -110 21 -20 31 -20 680 -20 l659 0 -3 -147 -3 -148 -1665 0 -1665 0 -3
360 c-1 198 0 366 3 372 3 11 339 13 1667 11 l1663 -3 3 -147z"/>
<path d="M1162 2079 c-23 -12 -51 -34 -62 -49 -30 -42 -43 -131 -37 -246 6
-121 23 -165 80 -202 38 -25 48 -27 180 -30 161 -4 211 8 252 62 59 78 61 337
4 418 -39 54 -87 68 -239 68 -117 0 -141 -3 -178 -21z m293 -254 l0 -120 -115
0 -115 0 -3 109 c-1 61 0 116 2 123 4 11 31 13 118 11 l113 -3 0 -120z"/>
<path d="M1962 2079 c-23 -12 -51 -34 -62 -49 -30 -42 -43 -131 -37 -246 6
-121 23 -165 80 -202 38 -25 48 -27 180 -30 161 -4 211 8 252 62 59 78 61 337
4 418 -39 54 -87 68 -239 68 -117 0 -141 -3 -178 -21z m293 -254 l0 -120 -115
0 -115 0 -3 109 c-1 61 0 116 2 123 4 11 31 13 118 11 l113 -3 0 -120z"/>
<path d="M1162 779 c-23 -12 -51 -34 -62 -49 -30 -42 -43 -131 -37 -246 6
-121 23 -165 80 -202 38 -25 48 -27 180 -30 161 -4 211 8 252 62 59 78 61 337
4 418 -39 54 -87 68 -239 68 -117 0 -141 -3 -178 -21z m293 -254 l0 -120 -115
0 -115 0 -3 109 c-1 61 0 116 2 123 4 11 31 13 118 11 l113 -3 0 -120z"/>
<path d="M1962 779 c-23 -12 -51 -34 -62 -49 -30 -42 -43 -131 -37 -246 6
-121 23 -165 80 -202 38 -25 48 -27 180 -30 161 -4 211 8 252 62 59 78 61 337
4 418 -39 54 -87 68 -239 68 -117 0 -141 -3 -178 -21z m293 -254 l0 -120 -115
0 -115 0 -3 109 c-1 61 0 116 2 123 4 11 31 13 118 11 l113 -3 0 -120z"/>
</g>
</svg>
